<?xml version="1.0" encoding="UTF-8" standalone="no"?>
<svg id="Layer_1" data-name="Layer 1" xmlns="http://www.w3.org/2000/svg" viewBox="0 0 128 128">
  <defs>
    <style>.cls-1{fill:#bd2e78;}.cls-2{fill:#2e79bd;}</style>
  </defs>
  <title>b</title>
  <path class="cls-1"
    d="M100.93258,75.90961a3.69554,3.69554,0,0,1,1.427,2.92487v6.31006a3.718,3.718,0,1,1-7.43609,0V78.83448a3.70491,3.70491,0,0,1,1.75989-3.15856l-.03188-10.07768L64.24786,83.97955,64,84.146l-.24787-.16642L16.04785,56.9228v37.9357c17.50434,3.3465,33.50675,11.50279,47.95569,24.33018,12.37755-13.33274,28.09793-22.14684,47.95216-24.33018V56.91928l-11.05854,6.27109Z" />
  <path class="cls-2"
    d="M122.23519,41.83109,64,8.81131,5.76481,41.83109l-3.502,1.99L6.211,46.059l3.502,1.99L64,78.83448,93.40442,62.15995,65.335,47.17091a2.12356,2.12356,0,1,1,2.00067-3.74638L97.78109,59.67771,118.287,48.04907l3.502-1.99,3.94822-2.23791Z" />
</svg>
